<?xml version="1.0" encoding="utf-8"?>
<!-- Generator: Adobe Illustrator 22.1.0, SVG Export Plug-In . SVG Version: 6.00 Build 0)  -->
<svg version="1.1" id="Ebene_1" 
	xmlns="http://www.w3.org/2000/svg" 
	xmlns:xlink="http://www.w3.org/1999/xlink" x="0px" y="0px" viewBox="0 0 375 88" style="enable-background:new 0 0 375 88;" xml:space="preserve">

	<polygon class="st1" points="0.5,0 0.5,70 0.7,69.7 17.5,81 34.5,69.5 34.7,69.7 51.6,81 68.6,69.5 68.8,69.7 85.7,81 102.7,69.5 
	102.9,69.7 119.7,81 136.8,69.5 137,69.7 153.8,81 170.9,69.5 171.1,69.7 187.9,81 205,69.5 205.2,69.7 222,81 239,69.5 239.2,69.7 
	256.1,81 273.1,69.5 273.3,69.7 290.2,81 307.2,69.5 307.4,69.7 324.3,81 341.3,69.5 341.5,69.7 358.4,81 375.1,69.7 375.1,0 " fill="#F2F2E7"/>
</svg>
