<svg xmlns="http://www.w3.org/2000/svg" width="13.683" height="13.682" viewBox="0 0 13.683 13.682">
  <path id="Pfad_167" data-name="Pfad 167" d="M520.622,822.953h-.989a5.157,5.157,0,0,0-4.352-4.352v-.99a.75.75,0,0,0-1.5,0v.99a5.157,5.157,0,0,0-4.353,4.352h-.989a.75.75,0,0,0,0,1.5h.989a5.159,5.159,0,0,0,4.353,4.352v.988a.75.75,0,0,0,1.5,0V828.8a5.159,5.159,0,0,0,4.352-4.352h.989a.75.75,0,0,0,0-1.5Zm-6.091,4.428a3.678,3.678,0,1,1,3.677-3.678A3.682,3.682,0,0,1,514.531,827.381Z" transform="translate(-507.689 -816.861)" fill="#2d362d"/>
</svg>
